<svg width="139" height="76" viewBox="0 0 139 76" fill="none" xmlns="http://www.w3.org/2000/svg">
<path d="M10.608 35.4989L1.19397 63.4786H7.62963L9.21723 58.4758H17.8047L19.3923 63.4786H25.9526L16.5386 35.4989H10.608ZM11.0213 52.4872L13.5274 44.6256L15.994 52.4872H11.0213ZM46.2372 45.217V45.1431C46.2818 43.9527 46.1301 42.7635 45.7914 41.6498C45.4529 40.5361 44.9346 39.5217 44.2691 38.6698C42.7733 36.805 40.4313 35.696 37.0527 35.696H26.5562V63.4786H32.7098V55.0666H35.4323L39.9064 63.4786H46.9654L41.6712 53.7687C43.0526 53.1234 44.2368 51.9503 45.0563 50.4155C45.8757 48.8808 46.2889 47.0621 46.2372 45.217ZM40.0901 45.7346C40.0901 47.7636 38.8502 49.0205 36.81 49.0205H32.7032V42.3254H36.7575C38.7912 42.3254 40.0901 43.4344 40.0901 45.6606V45.7346ZM67.4467 45.217V45.1431C67.4906 43.9528 67.3391 42.7638 67.0006 41.6501C66.6621 40.5364 66.1438 39.5219 65.4786 38.6698C63.9894 36.805 61.6408 35.696 58.2622 35.696H47.7657V63.4786H53.9127V55.0666H56.6681L61.1357 63.4786H68.2077L62.8807 53.7687C64.2609 53.1213 65.4441 51.9477 66.2632 50.4134C67.0826 48.8791 67.4965 47.0616 67.4467 45.217ZM61.2931 45.7346C61.2931 47.7636 60.0598 49.0205 58.0129 49.0205H53.9062V42.3254H57.9801C60.0073 42.3254 61.3062 43.4344 61.3062 45.6606L61.2931 45.7346ZM80.2196 34.9156C73.2657 34.9156 68.0502 41.4875 68.0502 49.5873V49.6613C68.0502 57.7611 73.2001 64.2508 80.154 64.2508C87.108 64.2508 92.3234 57.6789 92.3234 49.5791V49.497C92.3234 41.4464 87.1736 34.9156 80.2196 34.9156ZM86.9702 49.5873C86.8935 51.7755 86.1449 53.8421 84.8814 55.3564C83.6179 56.8708 81.9358 57.716 80.1868 57.716C78.4379 57.716 76.7558 56.8708 75.4923 55.3564C74.2288 53.8421 73.4802 51.7755 73.4035 49.5873C73.475 47.3987 74.2183 45.3293 75.4785 43.8102C76.7387 42.291 78.4188 41.4396 80.1678 41.4332C81.9175 41.4269 83.6008 42.2661 84.8683 43.776C86.1357 45.286 86.8882 47.35 86.9702 49.538V49.5873ZM129.717 4.1593L114.865 14.5675C115.429 15.7997 116.695 18.601 117.279 19.8661L123.984 15.159L115.134 51.5917L110.902 35.6139H105.516L105.556 35.8028L101.324 51.7725L97.4602 35.696H90.9589L98.3786 63.6758H103.738L108.206 47.6815L112.641 63.6758H112.674H118.033L129.573 17.0812L133.509 25.8054L138.016 22.5934C135.254 16.4487 132.466 10.2301 129.717 4.1593Z" fill="black"/>
<path d="M32.9263 75.0273V70.1978H31.5552V69.2122H35.2355V70.1978H33.8644V75.0191L32.9263 75.0273Z" fill="black"/>
<path d="M39.0732 75.0273V69.2203H42.5109V70.1977H40.0114V71.479H42.3403V72.4564H40.0114V74.0334H42.6355V75.019L39.0732 75.0273Z" fill="black"/>
<path d="M49.596 72.8916L50.5013 73.253C50.4127 73.7991 50.1819 74.293 49.8453 74.6575C49.4283 75.012 48.9254 75.1731 48.4236 75.1131C47.9218 75.0532 47.4525 74.7758 47.0965 74.329C46.6779 73.7389 46.4632 72.9651 46.4995 72.1771C46.4572 71.3583 46.6713 70.551 47.0965 69.9266C47.2969 69.6569 47.5411 69.444 47.8127 69.3023C48.0843 69.1606 48.3769 69.0934 48.671 69.1053C49.1788 69.0806 49.674 69.3079 50.0487 69.7377C50.2814 70.0326 50.4448 70.402 50.521 70.8054L49.596 71.0847C49.5525 70.8039 49.4318 70.5511 49.2549 70.3701C49.0678 70.1884 48.8354 70.0953 48.5988 70.1073C48.4413 70.1013 48.2848 70.1395 48.1406 70.2191C47.9965 70.2987 47.8684 70.4176 47.7657 70.5673C47.5203 71.0051 47.4064 71.5375 47.4442 72.0703C47.4052 72.6227 47.5161 73.1754 47.7591 73.6391C47.8582 73.7903 47.9836 73.9111 48.1258 73.9922C48.2679 74.0734 48.423 74.1127 48.5792 74.1072C48.8201 74.1178 49.055 74.0119 49.2352 73.8115C49.4275 73.5581 49.5534 73.2371 49.596 72.8916Z" fill="black"/>
<path d="M54.5491 75.0273V69.2203H55.4806V71.5037H57.3241V69.2203H58.2557V75.0273H57.3241V72.4893H55.4872V75.0273H54.5491Z" fill="black"/>
<path d="M62.4674 75.0273V69.2203H63.3727L65.2687 73.0971V69.2203H66.1412V75.0273H65.1965L63.3268 71.2408V75.0273H62.4674Z" fill="black"/>
<path d="M70.1758 72.1609C70.1627 71.6518 70.2368 71.145 70.3923 70.6743C70.4927 70.3678 70.6396 70.0888 70.8253 69.853C70.9926 69.6269 71.196 69.4477 71.4223 69.3273C71.7385 69.1664 72.0783 69.0881 72.4195 69.0973C72.7239 69.0827 73.027 69.1483 73.309 69.2898C73.5918 69.4313 73.8476 69.6456 74.0595 69.9187C74.4571 70.546 74.6736 71.3233 74.6736 72.124C74.6736 72.9248 74.4571 73.702 74.0595 74.3293C73.6115 74.8412 73.0263 75.125 72.4195 75.125C71.8126 75.125 71.2275 74.8412 70.7794 74.3293C70.5694 74.0358 70.4081 73.693 70.3044 73.3208C70.2008 72.9486 70.1568 72.5544 70.1758 72.1609ZM71.1402 72.1609C71.11 72.6991 71.2406 73.2321 71.5076 73.6558C71.6224 73.8202 71.7654 73.951 71.9248 74.039C72.0849 74.1269 72.2581 74.17 72.4326 74.165C72.6051 74.1699 72.7763 74.1267 72.9345 74.0386C73.0919 73.9506 73.2323 73.8198 73.3445 73.6558C73.5761 73.2096 73.6994 72.6889 73.6994 72.1568C73.6994 71.6248 73.5761 71.1041 73.3445 70.6579C73.2284 70.4961 73.0853 70.368 72.9259 70.2829C72.7659 70.1978 72.5933 70.1575 72.4195 70.1651C72.2436 70.1568 72.0691 70.1966 71.9071 70.2817C71.7451 70.3668 71.5994 70.4952 71.4813 70.6579C71.2334 71.0795 71.1126 71.5974 71.1402 72.1199V72.1609Z" fill="black"/>
<path d="M78.6648 75.0277V69.2783H79.6292V74.0503H81.9515V75.0359L78.6648 75.0277Z" fill="black"/>
<path d="M85.6451 72.1611C85.63 71.6525 85.7021 71.1458 85.855 70.6744C85.9554 70.3679 86.1023 70.0889 86.288 69.8531C86.4553 69.627 86.6586 69.4478 86.885 69.3274C87.2012 69.1665 87.541 69.0883 87.8821 69.0975C88.1865 69.0824 88.4896 69.1477 88.7724 69.2892C89.0545 69.4307 89.3103 69.6452 89.5222 69.9188C89.9198 70.5462 90.1363 71.3233 90.1363 72.1241C90.1363 72.9248 89.9198 73.7021 89.5222 74.3294C89.0755 74.8449 88.4896 75.131 87.8821 75.131C87.2746 75.131 86.6888 74.8449 86.242 74.3294C86.0334 74.0352 85.8727 73.6921 85.7704 73.32C85.668 72.9478 85.6254 72.5539 85.6451 72.1611ZM86.6094 72.1611C86.5773 72.6982 86.7059 73.2311 86.9702 73.6559C87.085 73.8203 87.2281 73.9511 87.3875 74.0391C87.5476 74.1271 87.7207 74.1701 87.8953 74.1652C88.0691 74.17 88.241 74.1269 88.3997 74.0389C88.5585 73.9509 88.7002 73.8201 88.8137 73.6559C89.0748 73.2231 89.2008 72.6856 89.168 72.1447C89.2027 71.6123 89.0787 71.0827 88.8203 70.658C88.7048 70.4952 88.5618 70.3666 88.4017 70.2814C88.2423 70.1962 88.0691 70.1565 87.8953 70.1652C87.7207 70.1564 87.5462 70.196 87.3855 70.2813C87.2241 70.3664 87.0805 70.4951 86.9637 70.658C86.7111 71.0774 86.5851 71.5955 86.6094 72.12V72.1611Z" fill="black"/>
<path d="M96.2596 72.892V71.9146H98.2802V74.2226C98.0309 74.4993 97.7409 74.7139 97.4274 74.855C97.0659 75.0333 96.6808 75.1252 96.2924 75.126C95.8509 75.1379 95.414 75.0047 95.0263 74.74C94.6714 74.49 94.3873 74.1083 94.2128 73.6476C94.033 73.1643 93.9412 72.6368 93.9438 72.1035C93.9287 71.5324 94.0324 70.9662 94.2456 70.4608C94.447 69.9933 94.7586 69.6147 95.1378 69.3766C95.4842 69.1721 95.864 69.0735 96.2465 69.0891C96.711 69.0621 97.1702 69.2203 97.5586 69.5409C97.8977 69.8394 98.1326 70.2891 98.2146 70.7975L97.2896 71.0111C97.2319 70.7409 97.102 70.5033 96.9222 70.3376C96.7293 70.1723 96.4997 70.0863 96.2662 70.0912C96.0851 70.0832 95.9054 70.1222 95.7368 70.2055C95.5688 70.289 95.416 70.415 95.2887 70.5758C95.025 70.9821 94.8957 71.4995 94.9279 72.0213C94.8951 72.5775 95.0263 73.1294 95.2952 73.5737C95.4146 73.7432 95.5623 73.8775 95.7276 73.967C95.8935 74.0565 96.0726 74.0989 96.253 74.0911C96.4558 74.0897 96.6559 74.0395 96.8435 73.9433C97.0265 73.8558 97.1984 73.737 97.3552 73.5901V72.8591L96.2596 72.892Z" fill="black"/>
<path d="M102.348 75.0273V69.2203H103.286V75.0273H102.348Z" fill="black"/>
<path d="M107.412 75.0273V69.2203H110.85V70.1977H108.35V71.479H110.679V72.4564H108.35V74.0334H110.935V75.019L107.412 75.0273Z" fill="black"/>
<path d="M114.734 73.1386L115.646 73.0236C115.678 73.3359 115.793 73.6253 115.974 73.8449C116.16 74.029 116.392 74.1249 116.63 74.116C116.864 74.1327 117.097 74.0455 117.286 73.8696C117.356 73.8058 117.414 73.7221 117.454 73.6249C117.494 73.5278 117.515 73.4203 117.515 73.3111C117.52 73.1857 117.488 73.0626 117.423 72.9661C117.329 72.8459 117.211 72.7581 117.082 72.7115C116.977 72.6622 116.728 72.5801 116.334 72.4569C115.952 72.3691 115.59 72.1724 115.278 71.8819C115.144 71.7382 115.035 71.5593 114.962 71.3578C114.888 71.1564 114.85 70.9372 114.852 70.7156C114.852 70.4224 114.923 70.1361 115.055 69.8943C115.195 69.631 115.397 69.4277 115.632 69.3111C115.922 69.164 116.232 69.094 116.544 69.1058C117.013 69.0633 117.478 69.2324 117.856 69.5822C118.003 69.741 118.121 69.9378 118.201 70.1589C118.281 70.3801 118.323 70.6204 118.322 70.8635L117.384 70.9127C117.365 70.6668 117.274 70.4384 117.128 70.2721C116.955 70.1252 116.746 70.0557 116.538 70.075C116.306 70.0564 116.077 70.1312 115.882 70.2885C115.836 70.3274 115.798 70.3801 115.773 70.4419C115.748 70.5036 115.735 70.5724 115.737 70.6417C115.737 70.71 115.749 70.7776 115.773 70.8389C115.796 70.9003 115.832 70.9536 115.875 70.9949C116.14 71.1916 116.431 71.3252 116.735 71.3891C117.083 71.4773 117.421 71.6151 117.745 71.7998C117.91 71.9178 118.053 72.0766 118.167 72.2666C118.28 72.4565 118.362 72.6735 118.405 72.9042C118.45 73.135 118.456 73.3745 118.424 73.6084C118.391 73.8422 118.321 74.0652 118.217 74.2638C118.068 74.554 117.85 74.7781 117.594 74.9045C117.272 75.0581 116.928 75.1307 116.584 75.118C116.111 75.151 115.646 74.9703 115.272 74.6088C114.949 74.2229 114.756 73.6968 114.734 73.1386Z" fill="black"/>
<path d="M12.1366 9.22766C12.563 9.22766 12.7533 8.92372 12.7926 8.33225L12.7008 7.67506C12.6508 7.23434 12.5005 6.82098 12.2678 6.48445C12.0351 6.14791 11.7299 5.90246 11.3887 5.77743C11.1525 5.71172 10.8245 5.65421 10.444 5.59671L9.6371 5.41598C9.4834 5.39968 9.33494 5.33772 9.20412 5.23526C9.15105 5.0645 9.12009 4.88426 9.11228 4.70129C9.12363 4.44088 9.1544 4.18236 9.20412 3.9291C9.24729 3.75655 9.26507 3.57563 9.25661 3.39513V3.0994C9.31263 2.4118 9.1643 1.72247 8.83996 1.16324C8.51555 0.603999 8.03796 0.214108 7.49844 0.0681267C7.36061 0.0144666 7.21615 -0.00779202 7.07202 0.00240818C6.5472 0.00240818 6.16671 0.421365 5.87805 1.25106C5.53237 2.44728 5.27972 3.6825 5.12361 4.93952C5.11386 5.15254 5.0657 5.36001 4.98276 5.54639C4.89981 5.73277 4.78424 5.89321 4.64471 6.01566C4.34559 6.18931 4.02271 6.28969 3.69346 6.3114C3.47253 6.32574 3.25302 6.36422 3.03743 6.42641L2.46668 6.60713C1.85429 6.7283 1.26097 6.96948 0.708514 7.32182C0.505746 7.43661 0.332262 7.61935 0.207228 7.84985C0.0821942 8.08035 0.0104772 8.34966 0 8.62798C0.017563 8.96684 0.103323 9.2947 0.249292 9.5809C0.373013 10.0008 0.593879 10.3649 0.883675 10.6268C1.17348 10.8888 1.51905 11.0366 1.87625 11.0514L2.21739 10.9528C2.83699 10.8857 3.44509 10.703 4.02148 10.4106L4.30357 10.3531C4.54631 10.3531 4.63815 10.5338 4.63815 10.8296L4.59223 11.1253C4.59882 11.2486 4.58313 11.3721 4.54631 11.4867C4.16581 17.6725 3.89027 24.0965 3.6869 30.8162V32.9603C3.6869 33.7325 3.6869 34.6033 3.73282 35.4248C3.78531 35.6055 3.83123 35.8437 3.87715 36.0162C3.90881 36.2048 3.99241 36.3735 4.11332 36.4927C4.40196 36.7609 4.75109 36.9076 5.11049 36.9117C5.4396 36.8887 5.76231 36.7884 6.06174 36.6159C6.26516 36.4649 6.43075 36.2456 6.53974 35.9828C6.64875 35.72 6.69677 35.4243 6.6784 35.129V33.8147C6.96705 29.658 7.24915 25.493 7.58372 21.2706C7.67557 20.3177 7.72805 19.3648 7.8199 18.4694C8.05607 15.5531 8.2988 12.645 8.62681 9.72877C8.62347 9.57959 8.65791 9.43295 8.72522 9.30981C8.83196 9.24237 8.94145 9.18207 9.05324 9.12909C9.57806 9.07158 10.1029 9.01408 10.6212 9.01408C11.0358 9.02615 11.4496 9.0646 11.8611 9.12909L12.1366 9.22766ZM71.0352 20.9995C70.7531 20.7659 70.4218 20.6429 70.084 20.6463C69.7205 20.673 69.3722 20.8393 69.0868 21.1227C68.6059 21.5655 68.146 22.0428 67.7091 22.5521C66.8563 23.4968 65.8591 24.573 64.7635 25.6984C63.7149 26.8247 62.6058 27.8594 61.444 28.7954C60.6122 29.5639 59.6217 30.0172 58.5903 30.1016C57.5931 30.1016 57.0683 29.1486 57.0683 27.251C57.0683 26.9471 57.1667 26.7745 57.4028 26.7745C58.1172 26.6545 58.7949 26.3065 59.3709 25.7641C60.907 24.1521 61.9483 21.922 62.3165 19.4551C62.2633 18.5472 61.9404 17.6972 61.4112 17.0728C60.9655 16.5796 60.3922 16.3052 59.7974 16.3006C59.1276 16.3279 58.4812 16.6149 57.9474 17.1221C56.8936 18.1595 56.0132 19.4463 55.356 20.9092L55.0739 21.131C54.5933 21.5711 54.1332 22.0456 53.6963 22.5521C52.8434 23.4968 51.8462 24.573 50.7507 25.6984C49.7021 26.8247 48.593 27.8594 47.4311 28.7954C46.5994 29.5639 45.6089 30.0172 44.5774 30.1016C43.5802 30.1016 43.0554 29.1486 43.0554 27.251C43.0554 26.9471 43.1538 26.7745 43.39 26.7745C44.1043 26.6545 44.7821 26.3065 45.3581 25.7641C46.8942 24.1521 47.9354 21.922 48.3037 19.4551C48.253 18.5463 47.9296 17.6953 47.3983 17.0728C46.9526 16.5796 46.3793 16.3052 45.7845 16.3006C45.1148 16.3279 44.4683 16.6149 43.9345 17.1221C42.7816 18.2041 41.845 19.6064 41.1984 21.2186C40.5517 22.8309 40.2128 24.609 40.2082 26.4131L40.3001 27.9657C40.3894 29.4672 40.9339 30.8692 41.8221 31.8842C42.2289 32.3829 42.7128 32.772 43.2442 33.0278C43.7756 33.2835 44.3432 33.4003 44.912 33.3711C46.5517 33.3539 48.1269 32.5685 49.3271 31.1695C51.3389 29.1651 52.9746 27.481 54.2342 26.1174C54.2342 26.2159 54.2342 26.3145 54.2342 26.4131L54.326 27.9657C54.4154 29.4672 54.9599 30.8692 55.848 31.8842C56.2544 32.3836 56.7383 32.7733 57.2698 33.0292C57.8013 33.2849 58.3691 33.4013 58.938 33.3711C60.5777 33.3539 62.1528 32.5685 63.3531 31.1695C68.7194 25.8216 71.4288 22.7246 71.4288 21.9524C71.4295 21.7656 71.3941 21.5814 71.3252 21.4154C71.2569 21.2496 71.1572 21.1068 71.0352 20.9995ZM59.4956 19.9891C59.2836 21.2387 58.6843 22.3318 57.8293 23.0286C57.7732 22.3566 57.9102 21.6817 58.2155 21.1246C58.5209 20.5677 58.9747 20.1651 59.4956 19.9891ZM45.5155 19.9891C45.4116 20.6083 45.2109 21.1956 44.9248 21.7173C44.6389 22.2389 44.2733 22.6845 43.8492 23.0286C43.7932 22.3566 43.9301 21.6817 44.2355 21.1246C44.5408 20.5677 44.9946 20.1651 45.5155 19.9891ZM41.048 19.7509C41.4284 19.7509 41.6187 19.4551 41.763 18.9787C41.8007 18.7075 41.8161 18.4323 41.8089 18.1572C41.8128 17.7842 41.7506 17.4147 41.627 17.0753C41.5034 16.7359 41.3213 16.4349 41.0939 16.1938C40.5978 15.6338 39.9575 15.316 39.2898 15.2984C38.8687 15.3137 38.4523 15.4136 38.0564 15.5942C36.362 16.4591 34.862 17.8297 33.6873 19.5866C33.2149 20.178 32.8147 20.7695 32.3162 21.4103C32.2827 21.3347 32.2407 21.2655 32.1915 21.2049C32.2082 21.0721 32.2486 20.9458 32.3096 20.8352C32.3949 20.5737 32.4438 20.2959 32.4539 20.0137C32.427 19.5038 32.2429 19.0271 31.9406 18.6838C31.6383 18.3405 31.2414 18.1576 30.8335 18.1736C30.5175 18.167 30.2117 18.3143 29.9807 18.5844C29.8364 19.0855 29.6264 19.948 29.4165 21.0488C27.9019 22.1383 26.3304 23.0989 24.7127 23.924C24.5739 23.9896 24.428 24.0284 24.2798 24.039C24.0436 24.039 23.8533 23.8008 23.8074 23.39C23.7615 23.2093 23.6631 22.9711 23.6172 22.7328C23.381 21.9607 23.1448 21.0899 22.9021 20.2684C22.653 19.3597 22.1465 18.5968 21.4785 18.1243C20.9999 17.7845 20.4607 17.6009 19.9106 17.5904C19.1641 17.588 18.437 17.8877 17.8375 18.4447C17.3216 18.8747 16.8443 19.3732 16.4139 19.9316C16.1712 20.2273 15.935 20.4656 15.6988 20.7531V19.8741L16.0793 16.6621C16.2237 15.0191 16.4139 13.5076 16.6501 11.9632C16.696 11.4867 16.7944 11.0103 16.8863 10.4763C17.0393 8.8437 17.3589 7.2424 17.8375 5.71172C17.9741 5.40329 18.0399 5.05362 18.0278 4.70129C18.0297 4.15829 17.8787 3.6318 17.6013 3.21441C17.4839 3.02051 17.3335 2.8617 17.1611 2.74947C16.9886 2.63723 16.7984 2.57437 16.6042 2.56543C16.375 2.58775 16.1518 2.66762 15.9477 2.80029C15.7437 2.93295 15.5632 3.1157 15.4168 3.33763C14.8546 4.13871 14.4482 5.09187 14.2293 6.12246C13.0467 11.075 12.2341 16.1544 11.802 21.2953C11.67 22.8341 11.6065 24.3808 11.6118 25.9284V27.3578C11.61 27.6851 11.6746 28.0076 11.7997 28.295C11.9248 28.5824 12.1062 28.8253 12.3268 29.0008C12.775 29.3176 13.2817 29.4819 13.7964 29.4772C14.158 29.4617 14.514 29.3614 14.846 29.1815C15.1805 28.9987 15.4621 28.6919 15.6529 28.3025C16.1712 27.1689 16.7419 26.1009 17.3127 25.0166C18.007 23.6787 18.8386 22.4608 19.7859 21.3938C19.9237 21.2131 20.0221 21.0981 20.1139 21.0981C20.2058 21.0981 20.2583 21.2706 20.3042 21.5663C20.4026 22.3878 20.5469 23.1189 20.6847 23.8336C21.3998 26.0352 22.4888 27.1196 24.0567 27.1196C24.3452 27.1097 24.6325 27.0713 24.9161 27.0046C26.2157 26.5587 27.4771 25.9533 28.6817 25.1973C28.5009 26.5001 28.4 27.8183 28.38 29.1404C28.38 30.9888 28.6686 32.2949 29.4755 32.4264C29.5985 32.4742 29.7275 32.4937 29.856 32.4839C30.1277 32.5102 30.399 32.4262 30.6294 32.2441C30.8599 32.0621 31.0373 31.7918 31.1353 31.4734C31.9681 28.9017 33.0358 26.4593 34.3171 24.1951C35.3886 21.7785 36.9794 19.7864 38.9093 18.4447C39.0211 18.3445 39.1527 18.2848 39.2898 18.2722C39.4275 18.2722 39.526 18.3297 39.6178 18.6254C39.7276 18.9094 39.8951 19.1523 40.1035 19.3297C40.3119 19.507 40.554 19.6126 40.8052 19.6359L41.048 19.7509Z" fill="black"/>
</svg>
