<svg width="136" height="73" viewBox="0 0 136 73" fill="none" xmlns="http://www.w3.org/2000/svg">
<path d="M79.6046 59.5734C79.5847 59.3729 79.4993 59.2171 79.3485 59.1061C79.1977 58.9951 78.9931 58.9395 78.7346 58.9395C78.5589 58.9395 78.4106 58.9644 78.2896 59.0141C78.1686 59.0622 78.0758 59.1293 78.0112 59.2155C77.9482 59.3016 77.9167 59.3994 77.9167 59.5088C77.9134 59.5999 77.9325 59.6795 77.9739 59.7474C78.017 59.8154 78.0758 59.8742 78.1504 59.9239C78.225 59.972 78.3111 60.0142 78.4089 60.0507C78.5067 60.0855 78.6111 60.1153 78.7221 60.1402L79.1795 60.2496C79.4016 60.2993 79.6054 60.3656 79.791 60.4484C79.9766 60.5313 80.1374 60.6332 80.2733 60.7542C80.4092 60.8751 80.5144 61.0177 80.589 61.1817C80.6652 61.3458 80.7041 61.5339 80.7058 61.746C80.7041 62.0576 80.6246 62.3277 80.4672 62.5564C80.3114 62.7834 80.086 62.9599 79.791 63.0858C79.4977 63.2101 79.1439 63.2723 78.7296 63.2723C78.3186 63.2723 77.9606 63.2093 77.6557 63.0834C77.3525 62.9574 77.1155 62.771 76.9448 62.5241C76.7757 62.2755 76.6871 61.9681 76.6788 61.6018H77.7203C77.7319 61.7725 77.7808 61.915 77.867 62.0294C77.9548 62.1421 78.0717 62.2274 78.2175 62.2854C78.365 62.3418 78.5315 62.3699 78.7172 62.3699C78.8994 62.3699 79.0577 62.3434 79.1919 62.2904C79.3278 62.2374 79.4331 62.1636 79.5076 62.0692C79.5822 61.9747 79.6195 61.8662 79.6195 61.7435C79.6195 61.6292 79.5855 61.5331 79.5176 61.4552C79.4513 61.3773 79.3535 61.311 79.2243 61.2563C79.0967 61.2016 78.94 61.1519 78.7544 61.1072L78.2001 60.968C77.7709 60.8635 77.432 60.7003 77.1834 60.4782C76.9348 60.2562 76.8114 59.9571 76.813 59.5809C76.8114 59.2726 76.8934 59.0033 77.0591 58.773C77.2265 58.5426 77.456 58.3628 77.7477 58.2336C78.0394 58.1043 78.3708 58.0397 78.742 58.0397C79.1199 58.0397 79.4496 58.1043 79.7314 58.2336C80.0147 58.3628 80.2351 58.5426 80.3926 58.773C80.55 59.0033 80.6312 59.2702 80.6362 59.5734H79.6046ZM86.108 60.6547C86.108 61.2099 86.0028 61.6822 85.7923 62.0716C85.5835 62.4611 85.2985 62.7586 84.9372 62.964C84.5776 63.1679 84.1733 63.2698 83.7242 63.2698C83.2718 63.2698 82.8657 63.1671 82.5061 62.9616C82.1465 62.7561 81.8623 62.4586 81.6535 62.0692C81.4447 61.6797 81.3403 61.2082 81.3403 60.6547C81.3403 60.0996 81.4447 59.6273 81.6535 59.2378C81.8623 58.8484 82.1465 58.5518 82.5061 58.3479C82.8657 58.1424 83.2718 58.0397 83.7242 58.0397C84.1733 58.0397 84.5776 58.1424 84.9372 58.3479C85.2985 58.5518 85.5835 58.8484 85.7923 59.2378C86.0028 59.6273 86.108 60.0996 86.108 60.6547ZM85.0168 60.6547C85.0168 60.2951 84.9629 59.9919 84.8552 59.7449C84.7491 59.498 84.5992 59.3108 84.4053 59.1831C84.2114 59.0555 83.9843 58.9917 83.7242 58.9917C83.464 58.9917 83.2369 59.0555 83.0431 59.1831C82.8492 59.3108 82.6984 59.498 82.5906 59.7449C82.4846 59.9919 82.4316 60.2951 82.4316 60.6547C82.4316 61.0144 82.4846 61.3176 82.5906 61.5645C82.6984 61.8115 82.8492 61.9987 83.0431 62.1263C83.2369 62.2539 83.464 62.3177 83.7242 62.3177C83.9843 62.3177 84.2114 62.2539 84.4053 62.1263C84.5992 61.9987 84.7491 61.8115 84.8552 61.5645C84.9629 61.3176 85.0168 61.0144 85.0168 60.6547ZM86.9054 63.2002V58.1093H87.9817V62.3128H90.1642V63.2002H86.9054ZM94.0216 58.1093H95.0979V61.4154C95.0979 61.7866 95.0093 62.1114 94.8319 62.3898C94.6563 62.6682 94.4102 62.8853 94.0937 63.0411C93.7771 63.1952 93.4084 63.2723 92.9875 63.2723C92.5649 63.2723 92.1953 63.1952 91.8788 63.0411C91.5623 62.8853 91.3162 62.6682 91.1405 62.3898C90.9649 62.1114 90.877 61.7866 90.877 61.4154V58.1093H91.9534V61.3234C91.9534 61.5173 91.9956 61.6897 92.0802 61.8405C92.1663 61.9913 92.2873 62.1098 92.4431 62.1959C92.5989 62.2821 92.7803 62.3252 92.9875 62.3252C93.1963 62.3252 93.3778 62.2821 93.5319 62.1959C93.6876 62.1098 93.8078 61.9913 93.8923 61.8405C93.9785 61.6897 94.0216 61.5173 94.0216 61.3234V58.1093ZM95.7896 58.9967V58.1093H99.9707V58.9967H98.4121V63.2002H97.3482V58.9967H95.7896ZM101.736 58.1093V63.2002H100.659V58.1093H101.736ZM107.299 60.6547C107.299 61.2099 107.194 61.6822 106.984 62.0716C106.775 62.4611 106.49 62.7586 106.129 62.964C105.769 63.1679 105.365 63.2698 104.916 63.2698C104.463 63.2698 104.057 63.1671 103.698 62.9616C103.338 62.7561 103.054 62.4586 102.845 62.0692C102.636 61.6797 102.532 61.2082 102.532 60.6547C102.532 60.0996 102.636 59.6273 102.845 59.2378C103.054 58.8484 103.338 58.5518 103.698 58.3479C104.057 58.1424 104.463 58.0397 104.916 58.0397C105.365 58.0397 105.769 58.1424 106.129 58.3479C106.49 58.5518 106.775 58.8484 106.984 59.2378C107.194 59.6273 107.299 60.0996 107.299 60.6547ZM106.208 60.6547C106.208 60.2951 106.154 59.9919 106.047 59.7449C105.941 59.498 105.791 59.3108 105.597 59.1831C105.403 59.0555 105.176 58.9917 104.916 58.9917C104.655 58.9917 104.428 59.0555 104.234 59.1831C104.041 59.3108 103.89 59.498 103.782 59.7449C103.676 59.9919 103.623 60.2951 103.623 60.6547C103.623 61.0144 103.676 61.3176 103.782 61.5645C103.89 61.8115 104.041 61.9987 104.234 62.1263C104.428 62.2539 104.655 62.3177 104.916 62.3177C105.176 62.3177 105.403 62.2539 105.597 62.1263C105.791 61.9987 105.941 61.8115 106.047 61.5645C106.154 61.3176 106.208 61.0144 106.208 60.6547ZM112.355 58.1093V63.2002H111.425L109.21 59.996H109.173V63.2002H108.097V58.1093H109.041L111.239 61.311H111.284V58.1093H112.355ZM116.006 59.5734C115.986 59.3729 115.901 59.2171 115.75 59.1061C115.599 58.9951 115.394 58.9395 115.136 58.9395C114.96 58.9395 114.812 58.9644 114.691 59.0141C114.57 59.0622 114.477 59.1293 114.413 59.2155C114.35 59.3016 114.318 59.3994 114.318 59.5088C114.315 59.5999 114.334 59.6795 114.375 59.7474C114.418 59.8154 114.477 59.8742 114.552 59.9239C114.626 59.972 114.713 60.0142 114.81 60.0507C114.908 60.0855 115.012 60.1153 115.123 60.1402L115.581 60.2496C115.803 60.2993 116.007 60.3656 116.192 60.4484C116.378 60.5313 116.539 60.6332 116.675 60.7542C116.811 60.8751 116.916 61.0177 116.99 61.1817C117.067 61.3458 117.105 61.5339 117.107 61.746C117.105 62.0576 117.026 62.3277 116.869 62.5564C116.713 62.7834 116.487 62.9599 116.192 63.0858C115.899 63.2101 115.545 63.2723 115.131 63.2723C114.72 63.2723 114.362 63.2093 114.057 63.0834C113.754 62.9574 113.517 62.771 113.346 62.5241C113.177 62.2755 113.088 61.9681 113.08 61.6018H114.122C114.133 61.7725 114.182 61.915 114.268 62.0294C114.356 62.1421 114.473 62.2274 114.619 62.2854C114.766 62.3418 114.933 62.3699 115.119 62.3699C115.301 62.3699 115.459 62.3434 115.593 62.2904C115.729 62.2374 115.834 62.1636 115.909 62.0692C115.984 61.9747 116.021 61.8662 116.021 61.7435C116.021 61.6292 115.987 61.5331 115.919 61.4552C115.853 61.3773 115.755 61.311 115.626 61.2563C115.498 61.2016 115.341 61.1519 115.156 61.1072L114.601 60.968C114.172 60.8635 113.833 60.7003 113.585 60.4782C113.336 60.2562 113.213 59.9571 113.214 59.5809C113.213 59.2726 113.295 59.0033 113.46 58.773C113.628 58.5426 113.857 58.3628 114.149 58.2336C114.441 58.1043 114.772 58.0397 115.143 58.0397C115.521 58.0397 115.851 58.1043 116.133 58.2336C116.416 58.3628 116.637 58.5426 116.794 58.773C116.951 59.0033 117.033 59.2702 117.038 59.5734H116.006Z" fill="white"/>
<path fill-rule="evenodd" clip-rule="evenodd" d="M16.6001 33.6L25.9001 55.4H19.4001L17.9001 51.5H9.5001L7.9001 55.4H1.6001L10.8001 33.6H16.6001ZM16.1001 46.8L13.7001 40.7L11.2001 46.8H16.1001ZM41.2001 47.9L46.4001 55.4H39.5001L35.1001 48.8H32.5001V55.4H26.5001V33.7H36.7001C40.0001 33.7 42.3001 34.6 43.8001 36C45.0001 37.3 45.7001 39 45.7001 41.1V41.2C45.7001 44.5 43.9001 46.7 41.2001 47.9ZM39.7001 41.5C39.7001 39.8 38.4001 38.9 36.4001 38.9H32.5001V44.1H36.5001C38.5001 44.1 39.7001 43.1 39.7001 41.6V41.5ZM62.0001 47.8L67.1001 55.4H60.2001L55.9001 48.8H53.2001V55.4H47.2001V33.7H57.4001C60.8001 33.7 63.1001 34.6 64.5001 36C65.8001 37.3 66.4001 38.9 66.4001 41.1C66.4001 44.5 64.7001 46.7 62.0001 47.8ZM60.4001 41.5C60.4001 39.7 59.1001 38.9 57.2001 38.9H53.2001V44.1H57.2001C59.2001 44.1 60.4001 43.1 60.4001 41.5ZM90.8001 44.5V44.6C90.8001 50.9 85.7001 56.1 78.9001 56.1C72.1001 56.1 67.0001 51 67.0001 44.7V44.6C67.0001 38.3 72.1001 33.1 78.9001 33.1C85.7001 33.1 90.8001 38.2 90.8001 44.5ZM85.5001 44.6C85.5001 41 82.7001 38.2 78.9001 38.2C75.1001 38.2 72.3001 41.1 72.3001 44.6C72.3001 48.2 75.1001 51 78.9001 51C82.7001 51 85.5001 48.1 85.5001 44.6ZM135.4 23.6C134.5 24.1 132 25.5 131 26.1C129.733 23.8333 128.467 21.5333 127.2 19.2L115.9 55.6H110.7H110.6L106.3 43.1L101.9 55.6H96.7001L89.4001 33.8H95.8001L99.6001 46.3L103.7 33.9V33.7H108.9L113.1 46.2L121.7 17.7C119.5 18.9667 117.333 20.2 115.2 21.4C114.6 20.4 113.3 18.2 112.8 17.3C117.667 14.5667 122.5 11.8667 127.3 9.20001C130 13.9 132.7 18.8 135.4 23.6Z" fill="white"/>
<path fill-rule="evenodd" clip-rule="evenodd" d="M13.9 8.6C13.4 8.5 12.9 8.5 12.4 8.5C11.8 8.5 11.2 8.53334 10.6 8.6C10.4667 8.66667 10.3333 8.73333 10.2 8.8C10.1 8.8 10.1 9 10.1 9.2C9.7 11.9 9.4 14.6 9.1 17.3C9 18.2 9 19.1 8.9 20C8.5 23.9 8.1 27.8 7.8 31.7V32.9C7.8 33.6 7.6 34.1 7.1 34.3C6.7 34.5 6.3 34.6 6 34.6C5.6 34.6 5.2 34.4667 4.8 34.2C4.6 34.1 4.6 34 4.5 33.8C4.5 33.6 4.4 33.4 4.4 33.2C4.33333 32.4 4.3 31.6333 4.3 30.9V28.9C4.5 22.6333 4.83334 16.6 5.3 10.8C5.36667 10.6667 5.4 10.5333 5.4 10.4V10.2C5.4 9.9 5.3 9.7 5 9.7L4.7 9.8C4 10 3.3 10.2 2.6 10.3H2.2C1.33333 10.3 0.666667 9.86667 0.200001 9C0.100001 8.7 0 8.4 0 8.1C0 7.63334 0.26667 7.23334 0.800003 6.9C1.46667 6.56667 2.16667 6.33333 2.9 6.2C3.1 6.13333 3.33334 6.06667 3.6 6C3.9 6 4.1 5.9 4.4 5.9C4.8 5.9 5.2 5.8 5.5 5.6C5.7 5.5 6 5.1 6 4.6C6.2 3.5 6.5 2.3 6.9 1.2C7.23334 0.400001 7.7 0 8.3 0C8.5 0 8.66667 0.0333356 8.8 0.100002C10.2 0.500002 10.9 1.43333 10.9 2.9V3.2C10.9 3.33333 10.8667 3.5 10.8 3.7C10.8 4 10.7 4.2 10.7 4.4C10.7 4.6 10.7333 4.76667 10.8 4.9C10.8667 4.96667 11.0333 5.03334 11.3 5.1C11.6333 5.16667 11.9667 5.23333 12.3 5.3C12.7 5.3 13.0667 5.33333 13.4 5.4C14.2 5.73334 14.7 6.33333 14.9 7.2L15 7.8C14.9 8.4 14.7 8.7 14.2 8.7L13.9 8.6ZM83.8 20.5C83.8 21.3 80.6 24.2 74.3 29.2C72.7 30.5333 70.9667 31.2 69.1 31.2C67.7 31.2 66.5 30.8 65.5 29.8C64.5 28.9333 63.9 27.7333 63.7 26.2L63.6 24.7C63.6 24.6333 63.6 24.5333 63.6 24.4C62.1333 25.7333 60.2333 27.3333 57.9 29.2C56.3 30.5333 54.5667 31.2 52.7 31.2C51.2 31.2 50 30.8 49.1 29.8C48.1 28.9333 47.5 27.7333 47.3 26.2L47.2 24.7C47.2667 21.1667 48.7 18.2667 51.5 16C52.2333 15.5333 52.9667 15.2667 53.7 15.2C54.4 15.2 55 15.5 55.6 16C56.2 16.5 56.5 17.2 56.7 18.2C56.2 20.5 55.1 22.5 53.2 24.1C52.5 24.6 51.8 24.9 50.9 25C50.6 25 50.5 25.2 50.5 25.5C50.5 27.3 51.1 28.2 52.3 28.2C53.2333 28.2 54.3667 27.7667 55.7 26.9C56.9 26.1 58.3 25.2 59.6 24C60.8 23 62 22 63 21.1C63.6667 20.5 64.2 20.0667 64.6 19.8C64.7333 19.6667 64.8667 19.5667 65 19.5C65.6667 18.2333 66.6667 17.0667 68 16C68.7333 15.5333 69.4333 15.2667 70.1 15.2C70.8 15.2 71.4 15.5 72 16C72.6 16.5 73 17.2 73.1 18.2C72.6 20.5 71.5 22.5 69.6 24.1C69 24.6 68.2 24.9 67.4 25C67.1 25 67 25.2 67 25.5C67 27.3 67.5667 28.2 68.7 28.2C69.7 28.2 70.8333 27.7667 72.1 26.9C73.4 26.1 74.7 25.2 76 24C77.3 23 78.4 22 79.4 21.1C80.1333 20.5 80.7 20.0667 81.1 19.8C81.4333 19.4667 81.8 19.3 82.2 19.3C82.6 19.3 82.9667 19.4 83.3 19.6C83.6 19.9 83.8 20.1 83.8 20.5ZM67.9 21.5C68.9 20.8333 69.5333 19.9 69.8 18.7C68.5333 19.1 67.9 20.0333 67.9 21.5ZM51.4 21.5C52.4 20.8333 53.0667 19.9 53.4 18.7C52.0667 19.1 51.4 20.0333 51.4 21.5ZM47.9 18.4C47.3 18.4 46.7 18 46.5 17.5C46.4 17.2 46.3 17.1 46.1 17.1C45.9667 17.1 45.8333 17.1667 45.7 17.3C43.4 18.5 41.6 20.4 40.3 22.7C38.9 24.8 37.4 26.9 36.5 29.5C36.3 30.1 35.8 30.4 35 30.4C34.9 30.4 34.8 30.4 34.6 30.3C33.6 30.2 33.3 29 33.3 27.3C33.3 26.2 33.4 24.9 33.7 23.6C32.3 24.2667 30.8 24.8333 29.2 25.3C28.8667 25.3667 28.5333 25.4 28.2 25.4C26.4 25.4 25.1 24.3 24.3 22.3C24.1 21.6 23.9 20.9 23.8 20.1C23.8 19.9 23.7 19.7 23.6 19.7C23.5 19.7 23.4 19.8 23.2 20C22.1 21 21.2 22.1 20.3 23.4C19.7 24.4 19 25.4 18.4 26.4C18.1 26.9 17.8 27.2 17.4 27.3C17 27.5 16.6 27.6 16.2 27.6C15.5 27.6 15 27.4 14.5 27.2C13.9 26.8 13.6 26.2667 13.6 25.6V24.3C13.6 22.8333 13.7 21.3667 13.9 19.9C14.3667 15.1 15.3 10.3667 16.7 5.7C17.1 4.5 17.6 3.6 18.1 3.1C18.6 2.6 19 2.4 19.5 2.4C19.9667 2.4 20.3667 2.6 20.7 3C21 3.4 21.2 3.9 21.2 4.4C21.2 4.7 21.1 5 20.9 5.3C20.4 6.8 20 8.3 19.8 9.8C19.7 10.3 19.6 10.7 19.5 11.2C19.2333 12.6 19.0333 14.0667 18.9 15.6L18.4 18.6V19.4C18.7 19.1 19 18.9 19.3 18.6C19.8 18.1 20.3 17.6 20.9 17.2C21.7 16.6667 22.5 16.4 23.3 16.4C23.9667 16.4 24.6 16.5667 25.2 16.9C26 17.4333 26.5333 18.1 26.8 18.9C27.1333 19.7 27.4333 20.4667 27.7 21.2C27.7 21.4 27.8 21.6 27.9 21.8C28 22.2 28.2 22.4 28.5 22.4C28.6333 22.4 28.8 22.3667 29 22.3C30.8667 21.5667 32.7 20.6667 34.5 19.6C34.7 18.6 35 17.8 35.1 17.4C35.4 17.1 35.8 17 36.1 17C37.1 17 38 17.7 38 18.7C38 18.9 37.9667 19.1667 37.9 19.5C37.8333 19.5667 37.7667 19.6667 37.7 19.8C37.7667 19.8667 37.8333 19.9333 37.9 20C38.5 19.4 38.9 18.9 39.5 18.3C40.9 16.7 42.6 15.4 44.6 14.6C45.1 14.4 45.6 14.3 46.1 14.3C46.8333 14.3 47.5333 14.5667 48.2 15.1C48.7333 15.6333 49 16.2667 49 17C49 17.2 49 17.5 49 17.7C48.8 18.2 48.6 18.5 48.1 18.5L47.9 18.4Z" fill="white"/>
<path d="M79.6046 59.5734C79.5847 59.3729 79.4993 59.2171 79.3485 59.1061C79.1977 58.9951 78.9931 58.9395 78.7346 58.9395C78.5589 58.9395 78.4106 58.9644 78.2896 59.0141C78.1686 59.0622 78.0758 59.1293 78.0112 59.2155C77.9482 59.3016 77.9167 59.3994 77.9167 59.5088C77.9134 59.5999 77.9325 59.6795 77.9739 59.7474C78.017 59.8154 78.0758 59.8742 78.1504 59.9239C78.225 59.972 78.3111 60.0142 78.4089 60.0507C78.5067 60.0855 78.6111 60.1153 78.7221 60.1402L79.1795 60.2496C79.4016 60.2993 79.6054 60.3656 79.791 60.4484C79.9766 60.5313 80.1374 60.6332 80.2733 60.7542C80.4092 60.8751 80.5144 61.0177 80.589 61.1817C80.6652 61.3458 80.7041 61.5339 80.7058 61.746C80.7041 62.0576 80.6246 62.3277 80.4672 62.5564C80.3114 62.7834 80.086 62.9599 79.791 63.0858C79.4977 63.2101 79.1439 63.2723 78.7296 63.2723C78.3186 63.2723 77.9606 63.2093 77.6557 63.0834C77.3525 62.9574 77.1155 62.771 76.9448 62.5241C76.7757 62.2755 76.6871 61.9681 76.6788 61.6018H77.7203C77.7319 61.7725 77.7808 61.915 77.867 62.0294C77.9548 62.1421 78.0717 62.2274 78.2175 62.2854C78.365 62.3418 78.5315 62.3699 78.7172 62.3699C78.8994 62.3699 79.0577 62.3434 79.1919 62.2904C79.3278 62.2374 79.4331 62.1636 79.5076 62.0692C79.5822 61.9747 79.6195 61.8662 79.6195 61.7435C79.6195 61.6292 79.5855 61.5331 79.5176 61.4552C79.4513 61.3773 79.3535 61.311 79.2243 61.2563C79.0967 61.2016 78.94 61.1519 78.7544 61.1072L78.2001 60.968C77.7709 60.8635 77.432 60.7003 77.1834 60.4782C76.9348 60.2562 76.8114 59.9571 76.813 59.5809C76.8114 59.2726 76.8934 59.0033 77.0591 58.773C77.2265 58.5426 77.456 58.3628 77.7477 58.2336C78.0394 58.1043 78.3708 58.0397 78.742 58.0397C79.1199 58.0397 79.4496 58.1043 79.7314 58.2336C80.0147 58.3628 80.2351 58.5426 80.3926 58.773C80.55 59.0033 80.6312 59.2702 80.6362 59.5734H79.6046ZM86.108 60.6547C86.108 61.2099 86.0028 61.6822 85.7923 62.0716C85.5835 62.4611 85.2985 62.7586 84.9372 62.964C84.5776 63.1679 84.1733 63.2698 83.7242 63.2698C83.2718 63.2698 82.8657 63.1671 82.5061 62.9616C82.1465 62.7561 81.8623 62.4586 81.6535 62.0692C81.4447 61.6797 81.3403 61.2082 81.3403 60.6547C81.3403 60.0996 81.4447 59.6273 81.6535 59.2378C81.8623 58.8484 82.1465 58.5518 82.5061 58.3479C82.8657 58.1424 83.2718 58.0397 83.7242 58.0397C84.1733 58.0397 84.5776 58.1424 84.9372 58.3479C85.2985 58.5518 85.5835 58.8484 85.7923 59.2378C86.0028 59.6273 86.108 60.0996 86.108 60.6547ZM85.0168 60.6547C85.0168 60.2951 84.9629 59.9919 84.8552 59.7449C84.7491 59.498 84.5992 59.3108 84.4053 59.1831C84.2114 59.0555 83.9843 58.9917 83.7242 58.9917C83.464 58.9917 83.2369 59.0555 83.0431 59.1831C82.8492 59.3108 82.6984 59.498 82.5906 59.7449C82.4846 59.9919 82.4316 60.2951 82.4316 60.6547C82.4316 61.0144 82.4846 61.3176 82.5906 61.5645C82.6984 61.8115 82.8492 61.9987 83.0431 62.1263C83.2369 62.2539 83.464 62.3177 83.7242 62.3177C83.9843 62.3177 84.2114 62.2539 84.4053 62.1263C84.5992 61.9987 84.7491 61.8115 84.8552 61.5645C84.9629 61.3176 85.0168 61.0144 85.0168 60.6547ZM86.9054 63.2002V58.1093H87.9817V62.3128H90.1642V63.2002H86.9054ZM94.0216 58.1093H95.0979V61.4154C95.0979 61.7866 95.0093 62.1114 94.8319 62.3898C94.6563 62.6682 94.4102 62.8853 94.0937 63.0411C93.7771 63.1952 93.4084 63.2723 92.9875 63.2723C92.5649 63.2723 92.1953 63.1952 91.8788 63.0411C91.5623 62.8853 91.3162 62.6682 91.1405 62.3898C90.9649 62.1114 90.877 61.7866 90.877 61.4154V58.1093H91.9534V61.3234C91.9534 61.5173 91.9956 61.6897 92.0802 61.8405C92.1663 61.9913 92.2873 62.1098 92.4431 62.1959C92.5989 62.2821 92.7803 62.3252 92.9875 62.3252C93.1963 62.3252 93.3778 62.2821 93.5319 62.1959C93.6876 62.1098 93.8078 61.9913 93.8923 61.8405C93.9785 61.6897 94.0216 61.5173 94.0216 61.3234V58.1093ZM95.7896 58.9967V58.1093H99.9707V58.9967H98.4121V63.2002H97.3482V58.9967H95.7896ZM101.736 58.1093V63.2002H100.659V58.1093H101.736ZM107.299 60.6547C107.299 61.2099 107.194 61.6822 106.984 62.0716C106.775 62.4611 106.49 62.7586 106.129 62.964C105.769 63.1679 105.365 63.2698 104.916 63.2698C104.463 63.2698 104.057 63.1671 103.698 62.9616C103.338 62.7561 103.054 62.4586 102.845 62.0692C102.636 61.6797 102.532 61.2082 102.532 60.6547C102.532 60.0996 102.636 59.6273 102.845 59.2378C103.054 58.8484 103.338 58.5518 103.698 58.3479C104.057 58.1424 104.463 58.0397 104.916 58.0397C105.365 58.0397 105.769 58.1424 106.129 58.3479C106.49 58.5518 106.775 58.8484 106.984 59.2378C107.194 59.6273 107.299 60.0996 107.299 60.6547ZM106.208 60.6547C106.208 60.2951 106.154 59.9919 106.047 59.7449C105.941 59.498 105.791 59.3108 105.597 59.1831C105.403 59.0555 105.176 58.9917 104.916 58.9917C104.655 58.9917 104.428 59.0555 104.234 59.1831C104.041 59.3108 103.89 59.498 103.782 59.7449C103.676 59.9919 103.623 60.2951 103.623 60.6547C103.623 61.0144 103.676 61.3176 103.782 61.5645C103.89 61.8115 104.041 61.9987 104.234 62.1263C104.428 62.2539 104.655 62.3177 104.916 62.3177C105.176 62.3177 105.403 62.2539 105.597 62.1263C105.791 61.9987 105.941 61.8115 106.047 61.5645C106.154 61.3176 106.208 61.0144 106.208 60.6547ZM112.355 58.1093V63.2002H111.425L109.21 59.996H109.173V63.2002H108.097V58.1093H109.041L111.239 61.311H111.284V58.1093H112.355ZM116.006 59.5734C115.986 59.3729 115.901 59.2171 115.75 59.1061C115.599 58.9951 115.394 58.9395 115.136 58.9395C114.96 58.9395 114.812 58.9644 114.691 59.0141C114.57 59.0622 114.477 59.1293 114.413 59.2155C114.35 59.3016 114.318 59.3994 114.318 59.5088C114.315 59.5999 114.334 59.6795 114.375 59.7474C114.418 59.8154 114.477 59.8742 114.552 59.9239C114.626 59.972 114.713 60.0142 114.81 60.0507C114.908 60.0855 115.012 60.1153 115.123 60.1402L115.581 60.2496C115.803 60.2993 116.007 60.3656 116.192 60.4484C116.378 60.5313 116.539 60.6332 116.675 60.7542C116.811 60.8751 116.916 61.0177 116.99 61.1817C117.067 61.3458 117.105 61.5339 117.107 61.746C117.105 62.0576 117.026 62.3277 116.869 62.5564C116.713 62.7834 116.487 62.9599 116.192 63.0858C115.899 63.2101 115.545 63.2723 115.131 63.2723C114.72 63.2723 114.362 63.2093 114.057 63.0834C113.754 62.9574 113.517 62.771 113.346 62.5241C113.177 62.2755 113.088 61.9681 113.08 61.6018H114.122C114.133 61.7725 114.182 61.915 114.268 62.0294C114.356 62.1421 114.473 62.2274 114.619 62.2854C114.766 62.3418 114.933 62.3699 115.119 62.3699C115.301 62.3699 115.459 62.3434 115.593 62.2904C115.729 62.2374 115.834 62.1636 115.909 62.0692C115.984 61.9747 116.021 61.8662 116.021 61.7435C116.021 61.6292 115.987 61.5331 115.919 61.4552C115.853 61.3773 115.755 61.311 115.626 61.2563C115.498 61.2016 115.341 61.1519 115.156 61.1072L114.601 60.968C114.172 60.8635 113.833 60.7003 113.585 60.4782C113.336 60.2562 113.213 59.9571 113.214 59.5809C113.213 59.2726 113.295 59.0033 113.46 58.773C113.628 58.5426 113.857 58.3628 114.149 58.2336C114.441 58.1043 114.772 58.0397 115.143 58.0397C115.521 58.0397 115.851 58.1043 116.133 58.2336C116.416 58.3628 116.637 58.5426 116.794 58.773C116.951 59.0033 117.033 59.2702 117.038 59.5734H116.006Z" fill="white"/>
</svg>
