<?xml version="1.0" standalone="no"?>
<!DOCTYPE svg PUBLIC "-//W3C//DTD SVG 20010904//EN"
 "http://www.w3.org/TR/2001/REC-SVG-20010904/DTD/svg10.dtd">
<svg version="1.0" xmlns="http://www.w3.org/2000/svg"
 width="542.000000pt" height="289.000000pt" viewBox="0 0 542.000000 289.000000"
 preserveAspectRatio="xMidYMid meet">

<g transform="translate(0.000000,289.000000) scale(0.100000,-0.100000)"
fill="#000000" stroke="none">
<path d="M321 2841 c-19 -19 -32 -55 -55 -156 -10 -43 -15 -50 -41 -56 -145
-35 -166 -43 -185 -67 -23 -29 -19 -54 14 -91 21 -23 49 -25 161 -9 23 3 23
10 5 -242 -6 -80 -14 -273 -17 -430 -7 -319 -8 -314 64 -314 52 0 73 31 73
106 0 128 81 912 96 927 3 3 45 6 92 6 l87 0 3 32 c2 18 -2 42 -8 53 -14 25
-67 50 -108 50 -41 0 -52 16 -45 69 8 76 -20 119 -89 136 -19 5 -32 1 -47 -14z"/>
<path d="M758 2740 c-34 -26 -60 -84 -91 -200 -56 -209 -97 -482 -97 -646 0
-100 7 -113 68 -135 62 -22 92 -1 175 124 82 122 153 200 161 176 2 -8 10 -38
16 -68 9 -40 23 -64 54 -96 59 -62 97 -67 206 -28 47 16 92 33 100 37 14 6 15
-6 12 -94 -5 -119 6 -156 49 -165 15 -4 35 -3 43 2 9 5 37 51 64 103 101 200
220 354 314 404 l34 19 27 -27 c19 -19 36 -26 55 -24 24 3 27 7 30 46 4 54
-17 88 -65 108 -70 30 -179 -22 -295 -138 -43 -43 -79 -78 -80 -78 -2 0 -3 19
-3 41 0 33 -5 46 -27 62 -42 32 -75 17 -91 -40 -9 -36 -20 -51 -52 -71 -43
-27 -186 -92 -203 -92 -6 0 -25 38 -42 84 -41 107 -79 147 -148 154 -59 5 -99
-12 -159 -71 -24 -22 -45 -38 -48 -35 -14 14 63 470 90 536 21 50 19 85 -8
110 -29 27 -57 28 -89 2z"/>
<path d="M4833 2331 c-156 -86 -285 -160 -289 -164 -4 -3 15 -42 41 -87 l47
-80 32 19 c149 89 227 129 222 113 -81 -271 -328 -1091 -333 -1102 -3 -8 -42
95 -87 230 l-83 245 -104 3 -104 3 -79 -238 c-43 -131 -81 -241 -85 -246 -4
-4 -38 95 -76 220 -37 126 -72 236 -77 246 -8 15 -25 17 -134 17 -97 0 -125
-3 -122 -12 3 -7 69 -205 147 -440 l143 -428 103 0 103 0 40 113 c22 61 61
174 88 249 27 75 49 136 51 135 1 -2 40 -113 86 -247 l84 -245 106 -3 106 -3
21 68 c242 787 424 1370 430 1376 4 4 34 -43 68 -106 92 -168 75 -158 165
-108 64 35 77 47 77 67 0 20 -272 525 -299 556 -3 4 -133 -64 -288 -151z"/>
<path d="M2109 2230 c-48 -25 -122 -109 -153 -173 -33 -67 -50 -158 -42 -225
18 -150 112 -233 250 -219 76 8 134 41 277 160 l126 105 6 -59 c6 -74 44 -140
99 -177 36 -23 51 -27 117 -27 55 0 88 6 121 21 96 44 478 375 468 405 -2 7
-16 22 -31 33 -27 20 -29 20 -60 3 -17 -10 -81 -60 -142 -113 -129 -111 -269
-208 -324 -225 -73 -22 -107 1 -113 75 -3 38 -2 39 43 52 76 23 160 125 188
231 9 34 9 49 -3 76 -15 37 -70 77 -105 77 -49 0 -143 -72 -193 -148 -23 -34
-262 -235 -353 -297 -86 -58 -148 -81 -189 -71 -31 8 -44 29 -48 81 -3 36 -1
39 28 45 49 11 100 47 138 98 38 52 76 140 76 175 0 33 -35 84 -69 102 -39 20
-68 18 -112 -5z m38 -157 c-8 -15 -27 -39 -41 -52 -24 -22 -26 -23 -26 -5 1
29 24 65 51 80 31 16 34 12 16 -23z m658 4 c-9 -33 -65 -88 -65 -63 0 25 27
73 47 85 23 12 25 9 18 -22z"/>
<path d="M3019 1506 c-323 -114 -420 -510 -184 -752 240 -246 685 -152 794
169 39 114 34 234 -14 343 -28 63 -120 164 -183 201 -114 67 -288 84 -413 39z
m247 -191 c148 -44 218 -215 147 -356 -50 -97 -142 -146 -258 -136 -139 11
-234 112 -235 250 0 180 165 296 346 242z"/>
<path d="M276 1088 c-98 -233 -181 -429 -183 -436 -4 -10 22 -12 122 -10 l128
3 30 78 30 77 168 0 168 0 29 -77 30 -78 131 -3 c72 -1 131 -1 131 0 0 2 -83
197 -184 433 l-183 430 -119 3 -120 3 -178 -423z m343 21 c22 -58 41 -108 41
-112 0 -4 -40 -7 -90 -7 -49 0 -90 4 -90 9 0 8 77 197 87 214 7 12 7 13 52
-104z"/>
<path d="M1080 1076 l0 -436 120 0 119 0 3 133 3 132 51 3 51 3 89 -135 89
-136 138 0 138 0 -19 28 c-10 15 -56 80 -100 144 -45 65 -82 121 -82 125 0 5
16 17 36 28 111 60 161 209 119 353 -20 67 -85 133 -163 164 -53 21 -74 23
-324 26 l-268 3 0 -435z m480 209 c37 -19 50 -43 50 -90 0 -78 -74 -111 -225
-103 l-60 3 -3 103 -3 102 106 0 c75 0 115 -4 135 -15z"/>
<path d="M1910 1076 l0 -436 120 0 119 0 3 133 3 132 51 3 52 3 87 -136 87
-135 135 0 c118 0 134 2 129 15 -3 9 -47 77 -97 152 -72 105 -89 137 -78 143
99 56 149 133 157 241 10 138 -53 242 -176 291 -53 21 -74 23 -324 26 l-268 3
0 -435z m475 212 c59 -26 73 -112 27 -158 -32 -32 -94 -44 -197 -38 l-60 3 -3
103 -3 102 105 0 c60 0 116 -5 131 -12z"/>
<path d="M3140 529 c-66 -27 -50 -97 27 -114 40 -8 50 -22 30 -42 -15 -16 -57
-10 -57 8 0 5 -11 9 -25 9 -30 0 -32 -13 -5 -40 14 -14 33 -20 63 -20 51 0 77
22 77 63 0 22 -7 31 -37 43 -62 27 -68 31 -68 45 0 21 45 23 59 3 13 -17 46
-14 46 4 0 31 -70 57 -110 41z"/>
<path d="M3328 525 c-15 -9 -32 -24 -38 -35 -24 -44 -2 -139 35 -154 36 -13
84 -6 112 18 24 21 28 32 28 75 0 41 -5 55 -25 76 -32 31 -77 40 -112 20z m76
-41 c19 -18 21 -85 4 -102 -19 -19 -66 -15 -78 7 -16 31 -12 69 10 91 24 24
43 25 64 4z"/>
<path d="M4173 521 c-39 -24 -56 -75 -42 -126 12 -42 42 -65 87 -65 46 0 71
16 88 56 40 96 -50 187 -133 135z m79 -38 c21 -19 25 -82 6 -101 -19 -19 -66
-15 -78 7 -15 29 -12 72 7 93 20 22 41 23 65 1z"/>
<path d="M4593 530 c-12 -5 -27 -19 -33 -31 -18 -34 1 -64 52 -81 24 -8 44
-22 46 -30 5 -24 -36 -33 -57 -14 -22 20 -51 21 -51 2 0 -43 104 -62 140 -26
39 39 16 82 -54 101 -27 7 -36 15 -34 27 4 22 41 27 58 7 17 -21 40 -19 40 4
0 36 -62 60 -107 41z"/>
<path d="M3500 430 l0 -100 65 0 c58 0 65 2 65 20 0 17 -7 20 -45 20 l-45 0 0
80 c0 73 -2 80 -20 80 -19 0 -20 -7 -20 -100z"/>
<path d="M3660 450 c0 -98 15 -120 84 -120 66 0 86 30 86 126 0 72 -1 74 -25
74 -23 0 -24 -3 -27 -77 -3 -78 -3 -78 -32 -81 -38 -5 -46 10 -46 91 0 60 -2
67 -20 67 -18 0 -20 -7 -20 -80z"/>
<path d="M3850 515 c0 -10 11 -15 35 -15 l35 0 0 -85 c0 -78 2 -85 20 -85 18
0 20 7 20 85 l0 85 30 0 c20 0 30 5 30 15 0 12 -16 15 -85 15 -69 0 -85 -3
-85 -15z"/>
<path d="M4050 430 c0 -93 1 -100 20 -100 19 0 20 7 20 100 0 93 -1 100 -20
100 -19 0 -20 -7 -20 -100z"/>
<path d="M4350 430 c0 -93 1 -100 20 -100 16 0 19 8 22 63 l3 62 43 -62 c28
-41 50 -63 62 -63 19 0 20 7 20 100 0 99 0 100 -25 100 -22 0 -24 -4 -27 -57
l-3 -57 -38 57 c-24 38 -44 57 -57 57 -19 0 -20 -7 -20 -100z"/>
</g>
</svg>
